<svg width="144" height="235" viewBox="0 0 144 235" fill="none" xmlns="http://www.w3.org/2000/svg">
<g clip-path="url(#clip0_15_289)">
<path d="M126.125 232.82V187.615C126.125 177.96 122.297 168.7 115.483 161.873C108.669 155.046 99.4275 151.211 89.7913 151.211H54.9324C45.2962 151.211 36.0546 155.046 29.2407 161.873C22.4269 168.7 18.5989 177.96 18.5989 187.615V232.734L126.125 232.82Z" fill="#29D1B3" fill-opacity="0.31"/>
<path d="M126.104 234.961H18.5134C17.9466 234.961 17.403 234.736 17.0021 234.334C16.6013 233.933 16.3762 233.388 16.3762 232.82V187.615C16.41 177.402 20.474 167.618 27.6813 160.396C34.8887 153.175 44.6543 149.103 54.847 149.069H89.6204C99.8148 149.098 109.584 153.168 116.792 160.39C124.001 167.613 128.063 177.401 128.091 187.615V232.734C128.115 233.292 127.92 233.837 127.549 234.252C127.178 234.668 126.659 234.923 126.104 234.961ZM20.6507 230.679H123.966V187.615C123.932 178.538 120.319 169.843 113.913 163.425C107.507 157.007 98.829 153.386 89.7699 153.352H54.9325C45.8735 153.386 37.1951 157.007 30.7894 163.425C24.3836 169.843 20.77 178.538 20.7362 187.615L20.6507 230.679Z" fill="#494848"/>
<path d="M72.3084 220.892L64.1013 156.007L81.9475 156.821L72.3084 220.892Z" fill="white"/>
<path d="M72.3084 223.034C71.7833 223.037 71.2752 222.847 70.881 222.5C70.4869 222.152 70.2341 221.672 70.1711 221.149L61.964 156.286C61.9237 155.974 61.9526 155.656 62.0486 155.356C62.1447 155.057 62.3055 154.782 62.5197 154.551C62.731 154.322 62.9897 154.142 63.2777 154.024C63.5656 153.906 63.8759 153.852 64.1868 153.866L82.0116 154.68C82.3124 154.691 82.6072 154.767 82.877 154.9C83.1467 155.034 83.3852 155.223 83.5769 155.456C83.7686 155.688 83.9091 155.959 83.9893 156.249C84.0694 156.54 84.0874 156.844 84.042 157.142L74.4029 221.192C74.3314 221.699 74.0807 222.164 73.6964 222.502C73.3121 222.84 72.8197 223.028 72.3084 223.034ZM66.5592 158.256L72.5008 205.367L79.4683 158.941L66.5592 158.256Z" fill="#494848"/>
<path d="M67.7347 2.6395C69.99 2.28606 72.2699 2.11419 74.5526 2.12555C85.068 2.12555 95.797 1.84716 105.393 6.55827C115.104 11.3583 123.289 18.773 129.031 27.9714C134.772 37.1698 137.844 47.7884 137.901 58.6374V101.83H9.66514C8.93847 99.2814 10.0712 96.2835 10.1781 93.7566C10.1041 90.9327 9.68786 88.1283 8.93848 85.4051C7.42563 78.3627 6.5812 71.1927 6.4165 63.991C6.44937 52.6625 8.79882 41.4609 13.3199 31.0775C15.8846 24.8245 18.8981 18.3575 24.3909 14.4601C29.8837 10.5627 38.6251 10.4342 42.5363 15.9377C49.2314 8.82763 58.0957 4.14957 67.7347 2.6395Z" fill="#725858" fill-opacity="0.9"/>
<path d="M137.901 103.971H9.66512C9.18542 103.989 8.71372 103.844 8.32601 103.561C7.93829 103.277 7.65714 102.871 7.52786 102.408C7.0454 100.352 7.0454 98.2112 7.52786 96.155C7.68697 95.3345 7.79405 94.5049 7.84845 93.6709C7.84616 91.652 7.57298 89.6424 7.03628 87.6964C6.90804 87.0754 6.75843 86.4544 6.65157 85.8334C5.11635 78.6707 4.25766 71.3792 4.08685 64.0552C4.10761 52.4336 6.50811 40.9399 11.1398 30.2851C13.7046 24.0322 16.9532 16.9869 22.9589 12.7469C28.5158 8.80675 37.2359 8.18574 42.4081 12.7469C49.2776 6.19806 57.994 1.92862 67.3714 0.519485C69.7335 0.15712 72.1201 -0.0218637 74.5098 -0.0158684H76.3906C86.4358 -0.0158684 96.8229 -0.0158565 106.312 4.63101C116.393 9.59676 124.891 17.2826 130.849 26.8237C136.807 36.3649 139.99 47.3827 140.038 58.6374V101.83C140.038 102.398 139.813 102.942 139.413 103.344C139.012 103.746 138.468 103.971 137.901 103.971ZM11.5246 99.6883H135.764V58.6374C135.719 48.1868 132.767 37.9556 127.24 29.0927C121.713 20.2298 113.829 13.0862 104.474 8.46412C95.9253 4.1813 86.0084 4.1813 76.4334 4.1813H74.5526C72.4051 4.15967 70.2598 4.32447 68.1408 4.67383C58.9526 6.0836 50.5016 10.5397 44.1393 17.3296C43.9233 17.5643 43.6576 17.7476 43.3618 17.8662C43.066 17.9847 42.7474 18.0355 42.4295 18.0148C42.1123 17.9938 41.8039 17.9021 41.5266 17.7465C41.2493 17.5909 41.0101 17.3753 40.8265 17.1154C37.642 12.6613 30.1402 12.8326 25.6519 16.1518C20.5652 19.7494 17.7654 25.8738 15.3075 31.8269C10.8918 41.9592 8.60035 52.8921 8.57511 63.9481C8.74935 71.0124 9.57935 78.0452 11.0544 84.9554C11.0544 85.555 11.2894 86.1331 11.4177 86.7327C12.0466 89.0348 12.3559 91.4128 12.3367 93.7994C12.2745 94.8203 12.146 95.8361 11.952 96.8402C11.7335 97.7774 11.5835 98.7293 11.5032 99.6883H11.5246Z" fill="#494848"/>
<path d="M63.6312 144.251H81.9262V154.808C81.9262 156.876 81.1065 158.858 79.6476 160.32C78.1886 161.782 76.2098 162.603 74.1465 162.603H71.3895C69.3262 162.603 67.3474 161.782 65.8884 160.32C64.4294 158.858 63.6098 156.876 63.6098 154.808V144.251H63.6312Z" fill="#FFDAC9"/>
<path d="M74.1679 164.723H71.4108C68.7844 164.723 66.2652 163.679 64.406 161.82C62.5469 159.962 61.4996 157.44 61.4939 154.808V144.251C61.4939 143.683 61.7191 143.138 62.1199 142.737C62.5207 142.335 63.0643 142.11 63.6312 142.11H81.9476C82.5144 142.11 83.058 142.335 83.4588 142.737C83.8596 143.138 84.0848 143.683 84.0848 144.251V154.808C84.0792 157.44 83.0318 159.962 81.1727 161.82C79.3135 163.679 76.7943 164.723 74.1679 164.723ZM65.7684 146.393V154.808C65.7741 156.304 66.371 157.736 67.4286 158.792C68.4861 159.848 69.9181 160.44 71.4108 160.44H74.1679C75.6606 160.44 77.0926 159.848 78.1501 158.792C79.2077 157.736 79.8046 156.304 79.8103 154.808V146.393H65.7684Z" fill="#494848"/>
<path d="M20.4797 111.959C30.3005 111.959 38.2618 105.084 38.2618 96.6047C38.2618 88.1249 30.3005 81.2507 20.4797 81.2507C10.6589 81.2507 2.69763 88.1249 2.69763 96.6047C2.69763 105.084 10.6589 111.959 20.4797 111.959Z" fill="#FFDAC9"/>
<path d="M20.4797 114.1C9.49415 114.1 0.560364 106.262 0.560364 96.6047C0.560364 86.9469 9.49415 79.1093 20.4797 79.1093C31.4653 79.1093 40.399 86.9683 40.399 96.6047C40.399 106.241 31.4653 114.1 20.4797 114.1ZM20.4797 83.3922C11.9306 83.3922 4.8349 89.3239 4.8349 96.6047C4.8349 103.885 11.8451 109.817 20.4797 109.817C29.1143 109.817 36.1245 103.885 36.1245 96.6047C36.1245 89.3239 29.1143 83.3922 20.4797 83.3922Z" fill="#494848"/>
<path d="M124.159 111.959C133.979 111.959 141.941 105.084 141.941 96.6047C141.941 88.1249 133.979 81.2507 124.159 81.2507C114.338 81.2507 106.377 88.1249 106.377 96.6047C106.377 105.084 114.338 111.959 124.159 111.959Z" fill="#FFDAC9"/>
<path d="M124.159 114.1C113.173 114.1 104.239 106.262 104.239 96.6047C104.239 86.9469 113.173 79.1093 124.159 79.1093C135.144 79.1093 144.078 86.9683 144.078 96.6047C144.078 106.241 135.144 114.1 124.159 114.1ZM124.159 83.3922C115.61 83.3922 108.514 89.3239 108.514 96.6047C108.514 103.885 115.524 109.817 124.159 109.817C132.793 109.817 139.803 103.885 139.803 96.6047C139.803 89.3239 132.772 83.3922 124.159 83.3922Z" fill="#494848"/>
<path d="M72.8 146.649C65.7562 146.652 58.7809 145.265 52.2724 142.566C45.764 139.867 39.85 135.91 34.8683 130.92C29.8866 125.931 25.9347 120.007 23.2385 113.487C20.5423 106.967 19.1546 99.9789 19.1546 92.9214V63.991C19.1546 63.991 32.6621 56.2605 36.6588 44.0972C36.6588 44.0972 57.2835 67.6528 77.2669 66.0039C93.7649 64.5962 110.175 62.2943 126.424 59.1085V92.9214C126.424 99.9771 125.037 106.964 122.342 113.482C119.647 120.001 115.697 125.924 110.718 130.913C105.739 135.902 99.827 139.86 93.3211 142.56C86.8151 145.26 79.842 146.649 72.8 146.649Z" fill="#FFDAC9"/>
<path d="M72.8 148.791C58.0144 148.774 43.839 142.883 33.382 132.41C22.925 121.936 17.04 107.736 17.0174 92.9214V63.991C17.0159 63.6136 17.1139 63.2426 17.3015 62.9154C17.4892 62.5883 17.7598 62.3166 18.086 62.1279C18.2142 62.1279 30.9096 54.6544 34.6498 43.4334C34.7667 43.0737 34.9766 42.7514 35.2582 42.4994C35.5397 42.2474 35.8829 42.0746 36.2528 41.9986C36.6374 41.9031 37.041 41.9166 37.4184 42.0376C37.7958 42.1586 38.1322 42.3824 38.39 42.6839C38.5824 42.9194 58.5231 65.3615 77.096 63.8625C93.541 62.4461 109.9 60.1587 126.104 57.0099C126.414 56.9487 126.734 56.9572 127.041 57.035C127.348 57.1127 127.633 57.2578 127.877 57.4596C128.123 57.6589 128.321 57.9101 128.457 58.1952C128.594 58.4803 128.666 58.7922 128.668 59.1085V92.9214C128.646 107.751 122.749 121.964 112.273 132.44C101.798 142.916 87.6004 148.797 72.8 148.791ZM21.2919 65.2758V93.0071C21.5664 106.51 27.1127 119.366 36.7404 128.818C46.3682 138.27 59.3103 143.564 72.7894 143.564C86.2685 143.564 99.2105 138.27 108.838 128.818C118.466 119.366 124.012 106.51 124.287 93.0071V61.6996C108.733 64.6421 93.0392 66.7863 77.2669 68.1239C60.3612 69.473 43.434 54.1619 37.3641 47.9946C33.0469 57.0956 24.3482 63.2415 21.2919 65.1901V65.2758Z" fill="#494848"/>
<path d="M72.5436 103.95C70.8828 103.941 69.2252 103.805 67.5851 103.543C67.0311 103.443 66.5385 103.129 66.2144 102.668C65.8902 102.207 65.7607 101.636 65.8539 101.08C65.9005 100.801 66.0017 100.534 66.1517 100.295C66.3018 100.055 66.4978 99.8477 66.7283 99.6845C66.9588 99.5212 67.2193 99.4053 67.4947 99.3435C67.7702 99.2817 68.0552 99.2751 68.3332 99.3242C70.5421 99.7144 72.7969 99.7721 75.0228 99.4956C74.2275 95.6408 72.8357 91.9342 70.8979 88.5101C70.6499 88.0091 70.6075 87.4307 70.7795 86.8987C70.9516 86.3667 71.3245 85.9232 71.8186 85.6631C72.3127 85.403 72.8888 85.3469 73.4236 85.5067C73.9585 85.6666 74.4097 86.0297 74.6809 86.5186C76.8181 90.8014 80.3874 98.382 78.9554 101.658C78.7627 102.11 78.4703 102.513 78.1001 102.836C77.7299 103.158 77.2917 103.393 76.8181 103.521C75.4152 103.833 73.9803 103.977 72.5436 103.95Z" fill="#494848"/>
<path d="M41.9592 233.676C41.3924 233.676 40.8488 233.451 40.448 233.049C40.0471 232.648 39.822 232.103 39.822 231.535V190.848C39.822 190.28 40.0471 189.736 40.448 189.334C40.8488 188.932 41.3924 188.707 41.9592 188.707C42.5261 188.707 43.0697 188.932 43.4705 189.334C43.8713 189.736 44.0965 190.28 44.0965 190.848V231.535C44.0965 232.103 43.8713 232.648 43.4705 233.049C43.0697 233.451 42.5261 233.676 41.9592 233.676Z" fill="#494848"/>
<path d="M102.679 233.676C102.112 233.676 101.569 233.451 101.168 233.049C100.767 232.648 100.542 232.103 100.542 231.535V190.848C100.542 190.28 100.767 189.736 101.168 189.334C101.569 188.932 102.112 188.707 102.679 188.707C103.246 188.707 103.789 188.932 104.19 189.334C104.591 189.736 104.816 190.28 104.816 190.848V231.535C104.816 232.103 104.591 232.648 104.19 233.049C103.789 233.451 103.246 233.676 102.679 233.676Z" fill="#494848"/>
<path d="M72.3298 223.034C71.9797 223.034 71.6349 222.948 71.3255 222.784C71.0162 222.62 70.7519 222.382 70.5559 222.091L48.1359 189.756C47.8638 189.363 47.7307 188.891 47.7578 188.413C47.7849 187.936 47.9707 187.481 48.2855 187.122L57.3262 176.908L47.5589 172.496C47.2774 172.37 47.0265 172.184 46.8236 171.951C46.6207 171.718 46.4705 171.444 46.3834 171.147C46.2952 170.85 46.2724 170.537 46.3167 170.23C46.361 169.923 46.4712 169.63 46.6399 169.37L59.0574 150.097C59.2012 149.845 59.3948 149.624 59.6264 149.449C59.8581 149.274 60.1229 149.148 60.4047 149.078C60.6866 149.009 60.9795 148.998 61.2657 149.046C61.552 149.094 61.8255 149.2 62.0696 149.357C62.3137 149.514 62.5233 149.719 62.6856 149.96C62.8479 150.202 62.9595 150.473 63.0136 150.759C63.0677 151.044 63.0632 151.338 63.0003 151.622C62.9375 151.906 62.8176 152.174 62.648 152.41L51.5769 169.541L61.729 174.124C62.0351 174.26 62.3049 174.467 62.5165 174.728C62.7281 174.988 62.8757 175.295 62.9472 175.623C63.0162 175.95 63.0078 176.289 62.9224 176.613C62.837 176.936 62.6772 177.235 62.4556 177.486L52.6883 188.6L74.061 219.672C74.3812 220.14 74.5026 220.717 74.3983 221.275C74.2941 221.833 73.9729 222.327 73.5053 222.648C73.1599 222.89 72.751 223.024 72.3298 223.034Z" fill="#494848"/>
<path d="M72.1589 223.034C71.7231 223.033 71.298 222.898 70.9406 222.648C70.4765 222.324 70.1596 221.829 70.0594 221.271C69.9592 220.713 70.084 220.138 70.4063 219.672L91.779 188.6L82.0117 177.486C81.7902 177.235 81.6303 176.936 81.5449 176.613C81.4596 176.289 81.4511 175.95 81.5201 175.623C81.5917 175.295 81.7392 174.988 81.9508 174.728C82.1624 174.467 82.4322 174.26 82.7384 174.124L92.8904 169.541L81.8193 152.41C81.512 151.935 81.4048 151.358 81.5209 150.804C81.637 150.251 81.9671 149.765 82.4392 149.455C82.6758 149.3 82.9408 149.194 83.2187 149.142C83.4967 149.091 83.7821 149.095 84.0584 149.155C84.3347 149.214 84.5964 149.328 84.8284 149.49C85.0604 149.652 85.2581 149.858 85.41 150.097L97.8275 169.37C97.9961 169.63 98.1064 169.923 98.1507 170.23C98.1949 170.537 98.1722 170.85 98.0839 171.147C97.9968 171.444 97.8466 171.718 97.6437 171.951C97.4408 172.184 97.19 172.37 96.9085 172.496L87.1411 176.908L96.0963 187.101C96.4143 187.458 96.604 187.911 96.635 188.388C96.666 188.866 96.5365 189.34 96.2673 189.735L73.9114 222.091C73.7174 222.379 73.4565 222.615 73.1512 222.779C72.8459 222.943 72.5054 223.031 72.1589 223.034Z" fill="#494848"/>
</g>
<defs>
<clipPath id="clip0_15_289">
<rect width="144" height="235" fill="white"/>
</clipPath>
</defs>
</svg>
