<svg width="223" height="87" viewBox="0 0 223 87" fill="none" xmlns="http://www.w3.org/2000/svg">
<path d="M75.776 68.52C75.776 66.152 76.256 63.992 77.216 62.04C78.208 60.056 79.552 58.472 81.248 57.288C82.976 56.104 84.944 55.512 87.152 55.512C89.168 55.512 90.976 56.04 92.576 57.096C94.176 58.152 95.424 59.432 96.32 60.936V45.96H100.544V76.2C100.544 76.712 100.64 77.096 100.832 77.352C101.056 77.576 101.408 77.704 101.888 77.736V81C101.088 81.128 100.464 81.192 100.016 81.192C99.184 81.192 98.448 80.904 97.808 80.328C97.2 79.752 96.896 79.112 96.896 78.408V76.296C95.904 77.896 94.576 79.16 92.912 80.088C91.248 81.016 89.52 81.48 87.728 81.48C86 81.48 84.4 81.144 82.928 80.472C81.488 79.768 80.224 78.808 79.136 77.592C78.08 76.376 77.248 75 76.64 73.464C76.064 71.896 75.776 70.248 75.776 68.52ZM96.32 72.216V65.016C95.936 63.928 95.312 62.952 94.448 62.088C93.584 61.192 92.608 60.488 91.52 59.976C90.464 59.432 89.408 59.16 88.352 59.16C87.104 59.16 85.968 59.432 84.944 59.976C83.952 60.488 83.088 61.192 82.352 62.088C81.648 62.952 81.104 63.944 80.72 65.064C80.336 66.184 80.144 67.352 80.144 68.568C80.144 69.816 80.352 71 80.768 72.12C81.216 73.24 81.824 74.232 82.592 75.096C83.392 75.96 84.304 76.632 85.328 77.112C86.384 77.592 87.52 77.832 88.736 77.832C89.504 77.832 90.288 77.688 91.088 77.4C91.92 77.112 92.704 76.712 93.44 76.2C94.176 75.688 94.8 75.096 95.312 74.424C95.824 73.72 96.16 72.984 96.32 72.216ZM118.54 81.48C116.652 81.48 114.94 81.144 113.404 80.472C111.868 79.768 110.54 78.824 109.42 77.64C108.3 76.424 107.436 75.032 106.828 73.464C106.22 71.896 105.916 70.248 105.916 68.52C105.916 66.76 106.22 65.096 106.828 63.528C107.436 61.96 108.3 60.584 109.42 59.4C110.54 58.184 111.868 57.24 113.404 56.568C114.972 55.864 116.684 55.512 118.54 55.512C120.428 55.512 122.14 55.864 123.676 56.568C125.212 57.24 126.54 58.184 127.66 59.4C128.812 60.584 129.692 61.96 130.3 63.528C130.908 65.096 131.212 66.76 131.212 68.52C131.212 70.248 130.908 71.896 130.3 73.464C129.692 75.032 128.828 76.424 127.708 77.64C126.588 78.824 125.244 79.768 123.676 80.472C122.14 81.144 120.428 81.48 118.54 81.48ZM110.236 68.568C110.236 70.296 110.604 71.864 111.34 73.272C112.108 74.68 113.116 75.8 114.364 76.632C115.612 77.432 117.004 77.832 118.54 77.832C120.076 77.832 121.468 77.416 122.716 76.584C123.996 75.752 125.004 74.632 125.74 73.224C126.508 71.784 126.892 70.2 126.892 68.472C126.892 66.744 126.508 65.176 125.74 63.768C125.004 62.36 123.996 61.24 122.716 60.408C121.468 59.576 120.076 59.16 118.54 59.16C117.004 59.16 115.612 59.592 114.364 60.456C113.116 61.288 112.108 62.408 111.34 63.816C110.604 65.224 110.236 66.808 110.236 68.568ZM147.418 81.48C145.53 81.48 143.802 81.144 142.234 80.472C140.698 79.768 139.354 78.808 138.202 77.592C137.082 76.376 136.202 74.984 135.562 73.416C134.954 71.848 134.65 70.184 134.65 68.424C134.65 66.056 135.178 63.896 136.234 61.944C137.29 59.992 138.778 58.44 140.698 57.288C142.618 56.104 144.842 55.512 147.37 55.512C149.834 55.512 151.978 56.072 153.802 57.192C155.658 58.28 157.034 59.752 157.93 61.608L153.802 62.904C153.162 61.72 152.266 60.808 151.114 60.168C149.962 59.496 148.682 59.16 147.274 59.16C145.738 59.16 144.33 59.56 143.05 60.36C141.802 61.16 140.81 62.264 140.074 63.672C139.338 65.048 138.97 66.632 138.97 68.424C138.97 70.184 139.338 71.784 140.074 73.224C140.842 74.632 141.85 75.752 143.098 76.584C144.378 77.416 145.786 77.832 147.322 77.832C148.314 77.832 149.258 77.656 150.154 77.304C151.082 76.952 151.882 76.488 152.554 75.912C153.258 75.304 153.738 74.648 153.994 73.944L158.122 75.192C157.61 76.408 156.826 77.496 155.77 78.456C154.746 79.384 153.514 80.12 152.074 80.664C150.666 81.208 149.114 81.48 147.418 81.48ZM175.868 79.752C175.516 79.912 175.036 80.12 174.428 80.376C173.82 80.632 173.116 80.856 172.316 81.048C171.516 81.24 170.668 81.336 169.772 81.336C168.748 81.336 167.804 81.16 166.94 80.808C166.076 80.424 165.388 79.848 164.876 79.08C164.364 78.28 164.108 77.288 164.108 76.104V59.256H160.7V55.944H164.108V47.592H168.332V55.944H173.948V59.256H168.332V74.808C168.396 75.704 168.7 76.376 169.244 76.824C169.788 77.24 170.428 77.448 171.164 77.448C171.996 77.448 172.764 77.304 173.468 77.016C174.172 76.728 174.636 76.52 174.86 76.392L175.868 79.752ZM190.399 81.48C188.511 81.48 186.799 81.144 185.263 80.472C183.727 79.768 182.399 78.824 181.279 77.64C180.159 76.424 179.295 75.032 178.687 73.464C178.079 71.896 177.775 70.248 177.775 68.52C177.775 66.76 178.079 65.096 178.687 63.528C179.295 61.96 180.159 60.584 181.279 59.4C182.399 58.184 183.727 57.24 185.263 56.568C186.831 55.864 188.543 55.512 190.399 55.512C192.287 55.512 193.999 55.864 195.535 56.568C197.071 57.24 198.399 58.184 199.519 59.4C200.671 60.584 201.551 61.96 202.159 63.528C202.767 65.096 203.071 66.76 203.071 68.52C203.071 70.248 202.767 71.896 202.159 73.464C201.551 75.032 200.687 76.424 199.567 77.64C198.447 78.824 197.103 79.768 195.535 80.472C193.999 81.144 192.287 81.48 190.399 81.48ZM182.095 68.568C182.095 70.296 182.463 71.864 183.199 73.272C183.967 74.68 184.975 75.8 186.223 76.632C187.471 77.432 188.863 77.832 190.399 77.832C191.935 77.832 193.327 77.416 194.575 76.584C195.855 75.752 196.863 74.632 197.599 73.224C198.367 71.784 198.751 70.2 198.751 68.472C198.751 66.744 198.367 65.176 197.599 63.768C196.863 62.36 195.855 61.24 194.575 60.408C193.327 59.576 191.935 59.16 190.399 59.16C188.863 59.16 187.471 59.592 186.223 60.456C184.975 61.288 183.967 62.408 183.199 63.816C182.463 65.224 182.095 66.808 182.095 68.568ZM221.437 59.64C219.325 59.672 217.453 60.216 215.821 61.272C214.221 62.296 213.085 63.72 212.413 65.544V81H208.189V55.944H212.125V61.752C212.989 60.024 214.125 58.632 215.533 57.576C216.973 56.488 218.477 55.88 220.045 55.752C220.365 55.752 220.637 55.752 220.861 55.752C221.085 55.752 221.277 55.768 221.437 55.8V59.64Z" fill="#29D1B3"/>
<path d="M77.152 37H72.928V22.984C72.928 20.424 72.464 18.504 71.536 17.224C70.64 15.944 69.344 15.304 67.648 15.304C66.56 15.304 65.456 15.592 64.336 16.168C63.248 16.744 62.288 17.528 61.456 18.52C60.624 19.48 60.016 20.6 59.632 21.88V37H55.408V1.96H59.632V17.32C60.624 15.528 61.968 14.12 63.664 13.096C65.392 12.04 67.248 11.512 69.232 11.512C70.736 11.512 71.984 11.784 72.976 12.328C74 12.84 74.816 13.576 75.424 14.536C76.032 15.496 76.464 16.616 76.72 17.896C77.008 19.144 77.152 20.52 77.152 22.024V37ZM94.8085 37.48C92.9205 37.48 91.1925 37.144 89.6245 36.472C88.0885 35.768 86.7445 34.824 85.5925 33.64C84.4725 32.424 83.5925 31.032 82.9525 29.464C82.3445 27.896 82.0405 26.232 82.0405 24.472C82.0405 22.104 82.5845 19.944 83.6725 17.992C84.7605 16.04 86.2645 14.472 88.1845 13.288C90.1365 12.104 92.3605 11.512 94.8565 11.512C97.3845 11.512 99.5765 12.12 101.433 13.336C103.321 14.52 104.777 16.088 105.801 18.04C106.857 19.96 107.385 22.04 107.385 24.28C107.385 24.6 107.369 24.92 107.337 25.24C107.337 25.528 107.321 25.752 107.289 25.912H86.5045C86.6325 27.544 87.0805 29 87.8485 30.28C88.6485 31.528 89.6725 32.52 90.9205 33.256C92.1685 33.96 93.5125 34.312 94.9525 34.312C96.4885 34.312 97.9285 33.928 99.2725 33.16C100.649 32.392 101.593 31.384 102.105 30.136L105.753 31.144C105.209 32.36 104.393 33.448 103.305 34.408C102.249 35.368 100.985 36.12 99.5125 36.664C98.0725 37.208 96.5045 37.48 94.8085 37.48ZM86.3605 22.984H103.449C103.321 21.352 102.857 19.912 102.057 18.664C101.257 17.416 100.233 16.44 98.9845 15.736C97.7365 15.032 96.3605 14.68 94.8565 14.68C93.3845 14.68 92.0245 15.032 90.7765 15.736C89.5285 16.44 88.5045 17.416 87.7045 18.664C86.9365 19.912 86.4885 21.352 86.3605 22.984ZM112.176 1.96H116.4V30.52C116.4 31.896 116.592 32.744 116.976 33.064C117.36 33.384 117.824 33.544 118.368 33.544C119.04 33.544 119.68 33.48 120.288 33.352C120.896 33.192 121.408 33.032 121.824 32.872L122.496 36.328C121.792 36.616 120.96 36.856 120 37.048C119.04 37.24 118.192 37.336 117.456 37.336C115.824 37.336 114.528 36.872 113.568 35.944C112.64 35.016 112.176 33.72 112.176 32.056V1.96ZM125.91 1.96H130.134V30.52C130.134 31.896 130.326 32.744 130.71 33.064C131.094 33.384 131.558 33.544 132.102 33.544C132.774 33.544 133.414 33.48 134.022 33.352C134.63 33.192 135.142 33.032 135.558 32.872L136.23 36.328C135.526 36.616 134.694 36.856 133.734 37.048C132.774 37.24 131.926 37.336 131.19 37.336C129.558 37.336 128.262 36.872 127.302 35.944C126.374 35.016 125.91 33.72 125.91 32.056V1.96ZM150.493 37.48C148.605 37.48 146.893 37.144 145.357 36.472C143.821 35.768 142.493 34.824 141.373 33.64C140.253 32.424 139.389 31.032 138.781 29.464C138.173 27.896 137.869 26.248 137.869 24.52C137.869 22.76 138.173 21.096 138.781 19.528C139.389 17.96 140.253 16.584 141.373 15.4C142.493 14.184 143.821 13.24 145.357 12.568C146.925 11.864 148.637 11.512 150.493 11.512C152.381 11.512 154.093 11.864 155.629 12.568C157.165 13.24 158.493 14.184 159.613 15.4C160.765 16.584 161.645 17.96 162.253 19.528C162.861 21.096 163.165 22.76 163.165 24.52C163.165 26.248 162.861 27.896 162.253 29.464C161.645 31.032 160.781 32.424 159.661 33.64C158.541 34.824 157.197 35.768 155.629 36.472C154.093 37.144 152.381 37.48 150.493 37.48ZM142.189 24.568C142.189 26.296 142.557 27.864 143.293 29.272C144.061 30.68 145.069 31.8 146.317 32.632C147.565 33.432 148.957 33.832 150.493 33.832C152.029 33.832 153.421 33.416 154.669 32.584C155.949 31.752 156.957 30.632 157.693 29.224C158.461 27.784 158.845 26.2 158.845 24.472C158.845 22.744 158.461 21.176 157.693 19.768C156.957 18.36 155.949 17.24 154.669 16.408C153.421 15.576 152.029 15.16 150.493 15.16C148.957 15.16 147.565 15.592 146.317 16.456C145.069 17.288 144.061 18.408 143.293 19.816C142.557 21.224 142.189 22.808 142.189 24.568Z" fill="#29D1B3"/>
<path d="M80 46H65L53.75 80L31.25 12L20 46H5" stroke="#29D1B3" stroke-width="4" stroke-linecap="round" stroke-linejoin="round"/>
</svg>
