<svg width="36" height="36" viewBox="0 0 36 36" fill="none" xmlns="http://www.w3.org/2000/svg">
<path d="M4.75961 36H0V31.2404L26.839 4.33472L31.6653 9.16183L4.75961 36ZM32.6873 8.13462L27.8654 3.3127L30.6052 0.65943C31.0284 0.233661 31.6774 7.65275e-06 32.2788 7.65275e-06C32.5749 -0.000765872 32.8682 0.0571077 33.1418 0.170288C33.4154 0.283468 33.6639 0.449714 33.8729 0.65943L35.344 2.13058C35.5529 2.33935 35.7183 2.58736 35.8309 2.86034C35.9435 3.13332 36.0009 3.42588 36 3.72116C36 4.32693 35.7655 4.97164 35.3406 5.39654L32.6873 8.13462Z" fill="#C0C0C0"/>
</svg>
